<svg xmlns="http://www.w3.org/2000/svg" width="27" height="27" viewBox="0 0 27 27"><g><g><path fill="#fff" d="M26.683 13.098a13.057 13.057 0 0 1-3.834 9.262 13.003 13.003 0 0 1-1.938 1.595c-.698.477-1.447.883-2.225 1.213a13.204 13.204 0 0 1-7.738.76 12.903 12.903 0 0 1-4.686-1.972 12.96 12.96 0 0 1-1.94-1.596 13.54 13.54 0 0 1-1.597-1.936 13.126 13.126 0 0 1-1.971-9.963 13.051 13.051 0 0 1 1.971-4.687 13.113 13.113 0 0 1 3.537-3.535A12.923 12.923 0 0 1 10.948.265a13.272 13.272 0 0 1 5.276 0c.841.172 1.671.43 2.462.761a13.157 13.157 0 0 1 6.969 6.971 13.042 13.042 0 0 1 1.028 5.1zm-4.458-7.106c-.023.032-1.814 2.626-6.231 4.428.259.533.51 1.076.743 1.623.081.192.163.385.241.576 3.843-.484 7.628.332 7.791.366a11.148 11.148 0 0 0-2.544-6.993zm-8.638-4.08c-.909 0-1.788.112-2.637.315.17.223 2.27 3.013 4.182 6.527 4.22-1.582 5.814-4.006 5.843-4.05a11.143 11.143 0 0 0-7.388-2.791zm-2.714.332c.02-.002.034-.006.034-.006v-.001a.119.119 0 0 1-.034.007zm-.001 0zm-8.234 8.55c.298.001 4.958.06 10.327-1.368-1.933-3.44-4.004-6.246-4.15-6.443a11.203 11.203 0 0 0-6.177 7.81zm2.628 9.778l-.003-.005s3.06-5.434 9.096-7.383c.15-.045.294-.092.442-.131a35.993 35.993 0 0 0-.908-1.902c-5.758 1.722-11.287 1.597-11.485 1.593-.003.117-.009.233-.009.354 0 2.871 1.088 5.49 2.867 7.474zm12.686 2.829c-.164-.98-.814-4.407-2.39-8.495a.417.417 0 0 0-.073.02c-6.633 2.315-8.777 6.99-8.777 6.99s-.089-.062-.216-.166a11.151 11.151 0 0 0 7.09 2.535c1.551 0 3.026-.318 4.366-.884zM6.46 21.72zm18.17-6.846c-.232-.076-3.36-1.066-6.97-.49 1.465 4.033 2.062 7.316 2.176 7.988a11.168 11.168 0 0 0 4.795-7.498z"/></g></g></svg>