<svg xmlns="http://www.w3.org/2000/svg" width="28" height="24" viewBox="0 0 28 24"><g><g><path fill="#fff" d="M27.197 10.322v1.135a.548.548 0 0 1-.55.549h-3.98v3.984a.549.549 0 0 1-.55.547h-1.134a.546.546 0 0 1-.55-.547v-3.984h-3.98a.551.551 0 0 1-.554-.55v-1.134c0-.303.251-.549.554-.549h3.98v-3.98a.55.55 0 0 1 .55-.551h1.134c.303 0 .55.248.55.55v3.981h3.98a.55.55 0 0 1 .55.55zM15.951 18.26c0 2.359-1.794 4.404-4.57 5.209-.889.26-1.853.386-2.862.386a13.04 13.04 0 0 1-3.212-.383c-1.953-.494-3.397-1.425-4.068-2.628a3.336 3.336 0 0 1-.436-1.653c0-.588.138-1.19.419-1.779 1.065-2.281 3.886-3.814 7.006-3.814h.09a2.771 2.771 0 0 1-.375-1.397c0-.24.03-.486.096-.736-3.275-.077-5.725-2.473-5.725-5.637 0-2.232 1.784-4.406 4.335-5.285A7.047 7.047 0 0 1 8.96.144h7.002a.55.55 0 0 1 .322.995l-1.566 1.136a.549.549 0 0 1-.324.103h-.562c.726.868 1.15 2.104 1.15 3.497 0 1.531-.778 2.982-2.187 4.09-1.093.847-1.134 1.08-1.134 1.568.012.267.776 1.135 1.611 1.728 1.953 1.38 2.68 2.737 2.68 4.999zm-7.445 3.376c3.015 0 4.545-1.04 4.545-3.091 0-.195-.024-.393-.073-.594-.205-.799-.933-1.295-2.035-2.045-.154-.106-.308-.213-.474-.324a5.387 5.387 0 0 0-1.503-.23H8.9c-2.383 0-4.471 1.445-4.471 3.09 0 1.792 1.789 3.194 4.076 3.194zM5.928 5.744c.273 2.07 1.785 3.861 3.3 3.908h.026c.568 0 1.052-.224 1.425-.649.583-.667.842-1.761.69-2.923-.273-2.07-1.754-3.799-3.3-3.842h-.061c-.551 0-1.037.223-1.411.647-.578.658-.822 1.699-.67 2.859z"/></g></g></svg>