<svg xmlns="http://www.w3.org/2000/svg" width="27" height="22" viewBox="0 0 27 22"><g><g><path fill="#fff" d="M26.605 2.758c-.959.426-1.99.715-3.074.842A5.356 5.356 0 0 0 25.885.637a10.76 10.76 0 0 1-3.399 1.303 5.356 5.356 0 0 0-9.125 4.883C8.909 6.601 4.965 4.466 2.322 1.226A5.362 5.362 0 0 0 3.98 8.379a5.357 5.357 0 0 1-2.428-.674v.07a5.361 5.361 0 0 0 4.297 5.25 5.338 5.338 0 0 1-1.412.186c-.344 0-.68-.03-1.006-.096a5.358 5.358 0 0 0 5 3.721 10.747 10.747 0 0 1-7.927 2.217 15.165 15.165 0 0 0 8.21 2.406c9.85 0 15.237-8.16 15.237-15.236 0-.23-.006-.463-.018-.693a10.907 10.907 0 0 0 2.672-2.772z"/></g></g></svg>