<svg xmlns="http://www.w3.org/2000/svg" width="26" height="26" viewBox="0 0 26 26"><g><g><path fill="#fff" d="M25.994 17.147v3.816a4.747 4.747 0 0 1-4.746 4.747H4.755a4.75 4.75 0 0 1-4.75-4.747v-3.816a4.75 4.75 0 0 1 4.75-4.75h16.493a4.747 4.747 0 0 1 4.746 4.75zM8.22 14.073H3.674v1.297h1.533v7.62h1.48v-7.62h1.532zm4.333 2.338h-1.315v4.994a1.73 1.73 0 0 1-.408.356c-.148.093-.27.138-.367.138-.122 0-.213-.035-.268-.109-.052-.066-.085-.178-.085-.334V16.41H8.796v5.5c0 .393.078.684.233.879.155.2.382.295.685.295.247 0 .5-.069.765-.211.263-.137.514-.34.758-.606v.721h1.315zm4.768 1.57c0-.54-.107-.95-.326-1.232-.222-.278-.539-.418-.956-.418a1.29 1.29 0 0 0-.605.158 1.934 1.934 0 0 0-.563.455v-2.87H13.54v8.915h1.331v-.508c.169.203.359.354.563.45.198.095.427.142.687.142.388 0 .688-.123.892-.373.206-.248.308-.606.308-1.07zm4.56.202c0-.628-.16-1.104-.484-1.436-.323-.334-.787-.5-1.39-.5-.588 0-1.063.18-1.436.539-.373.357-.56.826-.56 1.397v2.952c0 .635.173 1.133.508 1.489.338.365.801.54 1.392.54.655 0 1.148-.165 1.475-.505.332-.344.495-.85.495-1.524v-.337h-1.352v.298c0 .39-.044.637-.13.75-.089.114-.24.173-.459.173-.207 0-.358-.069-.445-.202-.088-.135-.126-.373-.126-.72v-1.239h2.512zm-1.488-.602c.09.113.136.312.136.588v.664h-1.16v-.664c0-.276.041-.475.135-.588.09-.123.241-.184.448-.184.201 0 .35.06.44.184zm-4.563-.035c.093.117.137.283.137.508v3.396c0 .209-.038.36-.114.455-.076.092-.192.137-.352.137a.762.762 0 0 1-.321-.07 1.165 1.165 0 0 1-.309-.233v-4.1a.936.936 0 0 1 .272-.2.612.612 0 0 1 .276-.065c.178 0 .314.058.411.172zM6.913 6.222L4.93.29h1.678l1.08 3.926h.108L8.826.29h1.695L8.58 6.038v4.076H6.913zm4.31 3.527c-.388-.365-.583-.854-.583-1.47V4.521c0-.562.198-1.007.597-1.34.4-.328.936-.498 1.606-.498.614 0 1.115.176 1.508.528.388.35.585.805.585 1.355v3.74c0 .62-.19 1.104-.573 1.46-.387.353-.915.528-1.588.528-.643 0-1.165-.181-1.552-.546zm.941-1.33c0 .197.052.347.157.459.105.107.253.162.451.162a.68.68 0 0 0 .479-.164.597.597 0 0 0 .178-.457V4.467a.474.474 0 0 0-.182-.38c-.12-.1-.28-.147-.475-.147a.652.652 0 0 0-.442.147.497.497 0 0 0-.166.38zm4.233 1.474c-.171-.217-.26-.537-.26-.97V2.868h1.477V8.42c0 .171.035.298.097.373.058.078.16.117.3.117.108 0 .248-.053.414-.154.166-.1.317-.231.454-.389v-5.5h1.483v7.246H18.88v-.803c-.268.295-.554.52-.85.678-.295.15-.58.23-.857.23-.344 0-.6-.11-.775-.326z"/></g></g></svg>