<svg xmlns="http://www.w3.org/2000/svg" width="16" height="30" viewBox="0 0 16 30"><g><g><path fill="#2c3233" d="M15.49 16.362v10.995a2.743 2.743 0 0 1-2.735 2.738H3.247a2.743 2.743 0 0 1-2.738-2.738V16.362h.017c.247-3.997 3.176-7.243 6.936-7.536v-.249c.031-.177-.26-.644-.433-.696L3.51 6.157a2.249 2.249 0 0 1-1.195-1.921v-1.34a1.59 1.59 0 0 1 1.59-1.59H9.45a1.828 1.828 0 0 1 1.773-1.4l1.408-.002c1.01.005 1.83.823 1.83 1.833v1.408c0 1.012-.82 1.828-1.83 1.83h-1.408a1.832 1.832 0 0 1-1.83-1.83v-.477H3.905a.234.234 0 0 0-.227.227v1.34c-.031.179.26.647.434.697L7.63 6.658a2.254 2.254 0 0 1 1.196 1.92v.27c3.62.433 6.41 3.618 6.648 7.514zM10.757 3.145c0 .252.215.467.467.467h1.408a.477.477 0 0 0 .467-.467V1.737a.477.477 0 0 0-.467-.467h-1.408a.475.475 0 0 0-.467.467zM7.343 14.587a.473.473 0 0 0-.466.466v1.409c0 .25.214.464.466.466h1.41a.476.476 0 0 0 .465-.466v-1.409a.473.473 0 0 0-.465-.466zm6.778 3.139v-.684c.001-.109.007-.15.007-.15h-.001c-.002-3.446-2.343-6.215-5.301-6.662v2.999a1.829 1.829 0 0 1 1.756 1.824v1.409a1.832 1.832 0 0 1-1.83 1.83H7.344a1.833 1.833 0 0 1-1.83-1.83v-1.409a1.83 1.83 0 0 1 1.83-1.83h.119V10.19c-3.093.304-5.585 3.144-5.588 6.702-.002 0 .003.04.007.15v.683h-.007v9.63c.001.752.622 1.373 1.373 1.375h9.508a1.386 1.386 0 0 0 1.372-1.374v-9.631z"/></g></g></svg>