<svg xmlns="http://www.w3.org/2000/svg" width="30" height="28" viewBox="0 0 30 28"><g><g><path fill="#2c3233" d="M29.771 11.934v.132c0 .166-.021.321-.054.453-.183.742-.676 1.342-1.38 1.86v9.01a4.373 4.373 0 0 1-4.36 4.359H6.021a4.371 4.371 0 0 1-4.359-4.36V14.38c-.706-.516-1.2-1.116-1.383-1.856a1.984 1.984 0 0 1-.054-.457c0-.025 0-.047.004-.066-.004-.018-.004-.04-.004-.066V8.48C.23 6.56 1.571 4.887 3.401 4.868h5.956V2.21a1.962 1.962 0 0 1 1.96-1.958h7.367A1.961 1.961 0 0 1 20.64 2.21v2.658h5.957c1.829.019 3.173 1.692 3.175 3.612zM10.586 4.868h8.826V2.21a.735.735 0 0 0-.728-.727h-7.368a.734.734 0 0 0-.727.727zm16.387 10.304c-.242.113-.488.223-.75.33-1.082.428-2.378.785-3.825 1.064a35.679 35.679 0 0 1-3.732.507v1.313a1.54 1.54 0 0 1-1.538 1.537h-4.259a1.54 1.54 0 0 1-1.538-1.537v-1.313c-2.99-.253-5.613-.803-7.556-1.57-.259-.107-.505-.216-.744-.328-.043-.02-.096-.04-.138-.06v8.273a3.148 3.148 0 0 0 3.13 3.127h17.953a3.147 3.147 0 0 0 3.128-3.127v-8.274c-.042.02-.09.038-.131.058zM12.56 18.386c0 .163.144.306.308.307h4.259a.316.316 0 0 0 .307-.307v-3.027a.315.315 0 0 0-.307-.308h-4.259a.315.315 0 0 0-.308.308zM3.401 6.1c-.987.003-1.944 1.004-1.944 2.38l-.001 3.418.006.065.001.03v.034l-.007.065c.004.044.012.098.025.165.065.421.592.998 1.544 1.537l.192.102c.08.042.16.084.247.123a9.23 9.23 0 0 0 .764.337c1.397.556 3.253 1 5.38 1.288.556.076 1.13.14 1.723.192v-.477a1.54 1.54 0 0 1 1.538-1.54h4.259a1.54 1.54 0 0 1 1.538 1.54v.477a36.34 36.34 0 0 0 2.11-.243c1.965-.29 3.68-.715 4.994-1.237a9.17 9.17 0 0 0 .499-.21 8.31 8.31 0 0 0 .71-.357c.949-.537 1.474-1.113 1.538-1.535.014-.069.021-.122.023-.167a.732.732 0 0 1-.003-.09c0-.037.001-.064.003-.083V8.48c-.002-1.376-.957-2.377-1.942-2.38z"/></g></g></svg>