<svg xmlns="http://www.w3.org/2000/svg" width="26" height="26" viewBox="0 0 26 26"><g><g><path fill="#2c3233" d="M9.105 17.814l-.919-.919L21.4 3.683l-2.191-2.19a.669.669 0 0 0-.479-.197.672.672 0 0 0-.477.198L4.32 15.425l-.918-.919L17.333.576a1.974 1.974 0 0 1 1.397-.578 1.97 1.97 0 0 1 1.398.577l5.297 5.297a1.98 1.98 0 0 1 .001 2.793L11.493 22.596l-.919-.918L24.507 7.746h-.002a.674.674 0 0 0 .002-.956L22.32 4.601zm-1.18 5.596c.266.268.476.586.482 1.008.008.33-.182.668-.433.843-.25.182-.53.258-.828.284l-5.268.451a1.936 1.936 0 0 1-.153.006H1.72a1.73 1.73 0 0 1-1.226-.497 1.716 1.716 0 0 1-.497-1.23c0-.058.002-.117.008-.17l.45-5.25c.028-.298.1-.579.283-.829a1.05 1.05 0 0 1 .844-.433c.422.007.74.218 1.009.482zm-.987.85l-5.197-5.198-.442 5.159h-.007l.004.053c.02.289.14.409.429.43.02 0 .041-.003.054-.003z"/></g></g></svg>